<?xml version="1.0" standalone="no"?>
<!DOCTYPE svg PUBLIC "-//W3C//DTD SVG 20010904//EN"
 "http://www.w3.org/TR/2001/REC-SVG-20010904/DTD/svg10.dtd">
<svg version="1.0" xmlns="http://www.w3.org/2000/svg"
 width="1500.000000pt" height="1500.000000pt" viewBox="0 0 750.000000 750.000000"
 preserveAspectRatio="xMidYMid meet">

<g transform="translate(0.000000,750.000000) scale(0.100000,-0.100000)"
fill="#ff0000" stroke="none">
<path d="M3445 4670 c-152 -12 -294 -29 -395 -46 -100 -17 -303 -63 -317 -73
-16 -10 -26 -614 -10 -608 171 71 349 122 512 148 45 7 170 13 285 13 168 1
217 -3 269 -17 125 -35 194 -86 236 -171 27 -55 38 -157 19 -176 -7 -7 -62 -1
-160 17 -133 24 -174 27 -379 27 -256 1 -323 -7 -476 -58 -139 -46 -239 -107
-335 -201 -123 -122 -206 -279 -244 -458 -26 -121 -25 -175 4 -291 33 -128 76
-206 162 -293 59 -58 90 -80 175 -122 207 -100 407 -122 678 -75 177 31 354
111 498 226 46 38 86 68 88 68 3 0 5 -61 5 -135 l0 -135 520 0 521 0 -3 803
c-4 800 -4 802 -26 877 -31 103 -93 223 -152 297 -151 188 -406 318 -722 368
-122 19 -583 28 -753 15z m618 -1316 c17 -6 18 -20 15 -164 l-3 -157 -44 -57
c-115 -149 -323 -232 -456 -182 -88 34 -165 156 -165 262 0 140 117 259 291
299 65 15 323 15 362 -1z"/>
</g>
</svg>
